<svg xmlns="http://www.w3.org/2000/svg" height="666.667" width="666.667"><path d="M666.667 666.667H0V0h666.667v666.667" fill="#f7f7f6"/><path d="M666.667 666.667H0V0h666.667v666.667" fill="#fff8f0"/><path d="M333.333-93.665H264.43l68.904 426.734 68.904-426.734h-68.904M119.966-36.493L60.293-2.043l273.04 335.112L179.64-70.945l-59.673 34.452" fill="#fddcb0"/><path d="M-36.23 119.703l-34.453 59.672 404.016 153.694L-1.779 60.03l-34.452 59.674M-93.403 333.07v68.905l426.736-68.906-426.736-68.902v68.902" fill="#fddcb0"/><path d="M-36.23 546.439l34.451 59.673 335.112-273.043-404.016 153.696 34.452 59.674M119.965 702.635l59.674 34.451L333.333 333.07 60.293 668.181l59.672 34.454" fill="#fddcb0"/><path d="M333.333 759.807h68.904l-68.904-426.738-68.904 426.736 68.904.002" fill="#fddcb0"/><path d="M546.701 702.635l59.674-34.454L333.333 333.07l153.695 404.017 59.673-34.451M702.897 546.439l34.452-59.674L333.333 333.07l335.112 273.043 34.452-59.673M760.07 333.07v-68.903l-426.737 68.902 426.736 68.906v-68.906" fill="#fddcb0"/><path d="M702.897 119.703l-34.452-59.674-335.112 273.04L737.35 179.375l-34.452-59.672M546.701-36.493l-59.673-34.452-153.695 404.014L606.375-2.043 546.7-36.493" fill="#fddcb0"/><path d="M602.996-5.668c-69.704 113.565-132.425 182.94-203.37 224.943l1.36 2.293c71.337-42.235 134.34-111.887 204.283-225.84l-2.273-1.396" fill="#2e2c6f"/><path d="M371.35 87.9h2.87l19.18 123.507-74.137-15.404L371.349 87.9" fill="#564eaa"/><path d="M329.765 198.184l63.635 13.223L374.22 87.9h-2.87l-4.149 8.607h5.584l-7.06 70.174-31.79-1.13-13.954 28.958 9.784 3.675" fill="#4a49a6"/><path d="M384.063 151.273c-5.611.123-11.223.599-16.784 1.208-7.7.843-15.356 2.044-22.94 3.612-2.174.45-4.356.906-6.527 1.411l-18.55 38.499 74.138 15.404-9.337-60.134M376.047 99.668L374.22 87.9h-2.87l-5.625 11.673c3.439.07 6.882.087 10.322.095M356.304 130.895c3.047 1.15 6.07 2.365 9.076 3.62a257.675 257.675 0 0117.323 8.008l-3.3-21.243c-4.926-3.31-9.86-6.604-14.807-9.88-1.15-.76-2.304-1.536-3.495-2.23l-9.625 19.974c1.613.577 3.228 1.147 4.828 1.75" fill="#f14660"/><path d="M367.279 152.481l-.127.016-1.427 14.184-31.79-1.13-.104.216-13.85 28.742 9.784 3.675 63.635 13.223-9.337-60.134c-5.611.123-11.223.599-16.784 1.208M368.812 135.988a258.311 258.311 0 0113.89 6.535l-3.3-21.243c-2.84-1.908-5.69-3.799-8.537-5.697l-2.053 20.405M372.785 96.507l-.317 3.144c1.193.008 2.385.014 3.579.017L374.22 87.9h-2.87l-4.149 8.607h5.584" fill="#ef2d41"/><path d="M318.903 190.144l10.309-18.295.82-.432c19.95 1.452 39.81 4.232 59.6 8.019.355.353.613.615.967.967l5.012 29.208c-.651.574-.855.756-1.504 1.332l-74.45-19.095-.754-1.704" fill="#fee82a"/><path d="M318.903 190.144l.754 1.704 74.45 19.095c.649-.576.853-.758 1.504-1.332l-5.011-29.208a662.12 662.12 0 01-.968-.967c-4.68-.896-9.363-1.73-14.052-2.51l-.84 7.803-47.952-8.576-7.885 13.991" fill="#deaa22"/><path d="M370.175 81.9l-41.478 13.043-24.912-10.696-.633 3.724 21.241 13.233 25.696-7.421-26.282 11.204-22.092-8.552-2.344 13.793 23.457 3.628-24.45 2.21-1.507 8.877 37.826-3.262L371.35 87.9l-1.174-6" fill="#f14660"/><path d="M370.175 81.9l-15.008 4.719c-.8 2.533-1.551 5.08-2.203 7.654-1.08 4.275-1.928 8.606-2.595 12.963L371.35 87.9l-1.174-6" fill="#ef2d41"/><path d="M367.828 85.03a4.957 4.957 0 119.914.001 4.957 4.957 0 01-9.914-.002" fill="#fee82a"/><path d="M375.57 80.932c.03.219.067.436.067.663a4.956 4.956 0 01-7.742 4.097c.326 2.421 2.38 4.295 4.89 4.295a4.956 4.956 0 002.786-9.055" fill="#deaa22"/><path d="M323.685 420.39l-95.641 116.85-3.255-1.616 20.68-151.437c34.763 4.06 59.622 17.246 78.216 36.202" fill="#564eaa"/><path d="M241.981 409.727L224.79 535.624l3.255 1.616 6.82-8.333-2.836-2.747 15.012-64.433 35.15 9.361 26.451-32.319-66.66-29.042" fill="#4a49a6"/><path d="M295.03 455.4c-2.743-1.343-5.486-2.685-8.227-4.03-13.136-6.438-26.272-12.878-39.414-19.306-2.642-1.293-5.285-2.587-7.928-3.879l-4.086 29.926c.904 1.049 1.828 2.08 2.77 3.094a109.546 109.546 0 007.347 7.164l1.548-6.642 35.148 9.361 12.841-15.688M234.49 488.44a77.315 77.315 0 01-3.109-1.09l-2.366 17.331a77.806 77.806 0 007.325 2.972l4.09-17.552a79.138 79.138 0 01-5.94-1.661M232.028 526.16l1.216-5.22a60.555 60.555 0 01-5.977-3.46l-2.478 18.144 3.255 1.616 6.82-8.333-2.836-2.747" fill="#ef2d41"/><path d="M236.961 522.67c-3.389-1.406-6.628-3.167-9.694-5.19l-2.478 18.144 3.255 1.616 11.221-13.71c-.769-.28-1.545-.546-2.304-.86M286.803 451.37c-13.136-6.438-26.272-12.878-39.414-19.306-2.642-1.293-5.285-2.587-7.928-3.879l-4.086 29.926a108.848 108.848 0 0014.78 14.205 110.846 110.846 0 0020.478 12.89L295.03 455.4c-2.742-1.343-5.485-2.685-8.226-4.03M256.263 492.252a79.487 79.487 0 01-21.772-3.812 77.315 77.315 0 01-3.11-1.09l-2.366 17.331a77.573 77.573 0 008.425 3.376 80.448 80.448 0 0012.04 2.992l15.585-19.041c-2.914.237-5.842.344-8.802.244" fill="#f14660"/><path d="M237.199 442.025c16.754 12.54 32.945 20.264 48.789 25.022l1.679-.426c4.39-4.422 27.714-27.922 27.596-27.95-.116-.03-62.17-29.816-75.959-36.436l-2.693 1.696v36.921l.588 1.173" fill="#fee82a"/><path d="M305.663 448.463l4.364-12.294c-15.26-7.31-59.364-28.481-70.723-33.933l-2.693 1.695v36.921l.588 1.173a174.582 174.582 0 0012.688 8.667l2.593-9.923 46.281 14.666c2.302-2.322 4.683-4.728 6.902-6.972" fill="#deaa22"/><path d="M248.653 569.986l-6.086-11.478 9.218 9.564 8.808 27.39 8.76-12.877-15.308-24.25-10.26-8.349 12.522 6.957 16.352 20.785 2.393-3.519-15.976-23.44-32.437-13.85-1.85 1.502 16.796 33.21 10.451 36.41 6.028-8.862-9.41-29.193" fill="#f14660"/><path d="M226.639 536.919l-1.85 1.502 7.038 13.916c1.24-.309 2.458-.658 3.642-1.024a60.625 60.625 0 0012.318-5.364l-21.148-9.03" fill="#ef2d41"/><path d="M220.176 538.421a5.347 5.347 0 015.348-5.348 5.346 5.346 0 015.347 5.348 5.347 5.347 0 11-10.695 0" fill="#fee82a"/><path d="M226.404 536.757c1.827 0 3.437.922 4.401 2.318.027-.216.066-.43.066-.654a5.349 5.349 0 10-10.696 0 5.33 5.33 0 00.946 3.031c.327-2.643 2.554-4.695 5.283-4.695" fill="#deaa22"/><path d="M186.393 317.204c0-75.639 61.318-136.957 136.956-136.957 75.64 0 136.956 61.318 136.956 136.957 0 75.64-61.316 136.956-136.956 136.956-75.638 0-136.956-61.316-136.956-136.956" fill="#7455b0"/><path d="M366.34 187.14c18.687 25.253 27.313 57.861 21.277 91.213-11.605 64.128-72.998 106.707-137.126 95.103-24.38-4.412-45.64-16.027-61.998-32.245C199.843 405.4 255.9 454.16 323.35 454.16c75.64 0 136.956-61.316 136.956-136.956 0-60.62-39.388-112.033-93.965-130.064" fill="#5c47a6"/><path d="M200.777 319.812c0-64.304 52.13-116.435 116.435-116.435 64.304 0 116.435 52.131 116.435 116.435 0 64.307-52.131 116.435-116.435 116.435-64.305 0-116.435-52.128-116.435-116.435" fill="#da70be"/><path d="M433.647 319.812c0-38.992-19.171-73.505-48.598-94.635 4.767 16.772 5.883 34.86 2.568 53.176-11.605 64.128-72.998 106.707-137.126 95.103-16.243-2.941-31.091-9.092-44.038-17.656 15.162 46.69 59.015 80.447 110.759 80.447 64.304 0 116.435-52.13 116.435-116.435" fill="#9f59b3"/><path d="M229.97 319.812c0-48.183 39.06-87.243 87.242-87.243 48.183 0 87.241 39.06 87.241 87.243 0 48.184-39.058 87.244-87.241 87.244s-87.243-39.06-87.243-87.244" fill="#5f43a4"/><path d="M404.453 319.812c0-18.524-5.789-35.688-15.634-49.813a120.347 120.347 0 01-1.202 8.354c-11.605 64.128-72.998 106.707-137.126 95.103-.82-.15-1.627-.327-2.44-.492 15.95 20.724 40.988 34.092 69.161 34.092 48.183 0 87.241-39.06 87.241-87.244" fill="#5243a3"/><path d="M244.9 319.812c0-39.936 32.375-72.31 72.312-72.31 39.936 0 72.31 32.374 72.31 72.31 0 39.937-32.374 72.312-72.31 72.312-39.937 0-72.312-32.375-72.312-72.312" fill="#fee82a"/><path d="M389.523 319.812a72.092 72.092 0 00-5.363-27.34c-15.41 49.627-61.727 83.199-113.243 82.881 12.543 10.467 28.68 16.771 46.295 16.771 39.936 0 72.31-32.375 72.31-72.312" fill="#deaa22"/><path d="M264.43 319.812c0-29.15 23.631-52.783 52.782-52.783 29.15 0 52.783 23.632 52.783 52.783 0 29.15-23.632 52.783-52.783 52.783-29.15 0-52.783-23.632-52.783-52.783" fill="#554fab"/><path d="M369.927 322.473c-15.57 23.504-39.147 40.691-66.155 48.39a52.862 52.862 0 0013.44 1.732c28.257 0 51.328-22.206 52.715-50.122" fill="#4b49a7"/><path d="M367.957 305.639c-13.286-8.252-25.213-16.76-34.624-25.739-1.352 7.853-1.62 16.288 0 25.739l-17.897-11.131c-3.759 9.785-6.528 20.39-7.65 32.348-6.365-5.31-11.423-12.23-15.654-20.175l-2.087 46.262c-14.417-4.742-29.742-12.635-45.565-22.258-7.828 19.438-14.304 39.15-17.739 59.475-8.684-1.864-16.996-5.19-24.968-9.853a137.567 137.567 0 0055.692 56.986c10.474 1.218 20.646 1.644 30.494 1.215-2.634-22.66-3.874-45.392-4.174-68.173 11.755 8.19 25.119 15.256 39.564 21.565-2.8-23.192-1.445-45.353 4.262-66.436l26.782 25.044c-3.986-18.796-6.304-36.243-4.173-50.087 5.345 4.391 11.541 4.808 17.737 5.218" fill="#2e2c6f"/><path d="M257.465 437.293c10.474 1.218 20.646 1.644 30.494 1.215-2.634-22.66-3.874-45.392-4.174-68.173l-2.522-.348c-1.384 21.53-1.018 43.393 1.456 65.652-12.234.341-23.734-.418-33.739-3.423 2.763 1.79 5.59 3.485 8.485 5.077M354.393 350.508c-3.986-18.796-6.304-36.243-4.173-50.087l-2.175.783c-2.089 13.173-1.853 27.775 0 43.368l6.348 5.936M323.35 391.9c-2.8-23.192-1.446-45.353 4.26-66.436l-2.782.088c-5.195 18.059-7.376 39.675-7.616 63.581 2.024.936 4.067 1.862 6.137 2.767M291.784 314.4c3.773 6.193 8.69 10.917 14.87 14.021l1.131-1.565c-6.364-5.31-11.422-12.23-15.653-20.175l-.348 7.719M290.045 352.943c-14.417-4.742-29.742-12.635-45.565-22.258-7.828 19.438-14.304 39.15-17.739 59.475-8.684-1.864-16.996-5.19-24.968-9.853a137.103 137.103 0 004.862 8.566c7.837 4.675 11.598 4.49 20.845 4.896 5.396-21.717 12.501-38.48 18.39-56.826 13.473 8.56 27.9 14.692 43.305 18.348l.87-2.348M333.333 279.9a79.057 79.057 0 00-.564 3.939l32.03 21.569c1.05.09 2.104.16 3.158.23-13.286-8.251-25.213-16.76-34.624-25.738M333.333 305.639l-17.897-11.131a133.57 133.57 0 00-1.4 3.824l18.27 8.61 1.027-1.303" fill="#5142a3"/><path d="M191.61 306.681L87.09 373.117l1.337 4.836 123.533-2.836c-.03-31.208-4.454-56.95-20.348-68.436" fill="#564eaa"/><path d="M191.61 306.681L87.09 373.117l1.337 4.836 12.731-.292v-5.066l73.236-34.068 13.599 37.141 23.967-.55c-.03-31.209-4.454-56.951-20.348-68.437" fill="#4a49a6"/><path d="M146.953 357.915a133.645 133.645 0 00-9.264-16.959l-18.888 12.004c7.096 7.224 13.407 15.248 18.708 23.867l16.251-.374c-.656-2.4-1.46-4.774-2.252-7.081a127.586 127.586 0 00-4.555-11.457M115.17 376.97c-.871-4.797-2.335-9.482-4.405-13.9a49.248 49.248 0 00-1.975-3.747L87.09 373.117l1.337 4.836 26.8-.614c-.022-.123-.033-.247-.055-.368M211.959 375.117c-.03-31.208-4.454-56.95-20.348-68.436l-28.732 18.263c1.01 3.47 2.053 6.932 2.869 10.464 1.204 5.22 2.164 10.5 2.861 15.813a160.096 160.096 0 011.288 24.862l42.062-.966" fill="#f14660"/><path d="M165.748 335.408c.497 2.16.944 4.33 1.357 6.51l7.288-3.391 13.599 37.141 23.967-.55c-.03-31.209-4.454-56.951-20.348-68.437l-28.732 18.263c1.01 3.47 2.053 6.932 2.869 10.464M101.157 372.595l11.358-5.283a54.576 54.576 0 00-1.75-4.241 49.248 49.248 0 00-1.975-3.748L87.09 373.117l1.337 4.836 12.731-.292v-5.066M126.086 360.999l18.24-8.487a135.108 135.108 0 00-6.637-11.556l-18.888 12.004a137.111 137.111 0 017.285 8.039" fill="#ef2d41"/><path d="M177.401 315.544c9.852 18.093 15.568 37.941 18.872 60.095l.856.749 15.546.15c.586-.52.942-.833 1.528-1.351.57-5.308 2.266-25.09-1.984-41.418-4.318-16.59-16.951-26.252-20.134-28.465-.534.004-.917.005-1.45.01l-12.97 9.091c-.101.438-.162.704-.264 1.139" fill="#fee82a"/><path d="M204.89 318.203c-5.06-7.159-10.802-11.506-12.806-12.899-.533.004-.916.005-1.45.01l-12.967 9.091c-.103.438-.164.704-.267 1.139a146.928 146.928 0 017.025 14.865l20.464-12.206" fill="#deaa22"/><path d="M88.567 375.361l-4.435.722 1.435 49.512-10.826 31.1 4.352 2.913 13.348-22.49-1.526-26.262 4.521 27.815-11.126 24.428 8.015 5.361 11.633-29.79-11.517-41.38 16.387 35.827-9.357 40.124 5.792 3.876 12.522-42.39-29.218-59.366" fill="#f14660"/><path d="M84.132 376.083l.732 25.252a63.622 63.622 0 007.352 2.302c.704.175 1.414.319 2.123.472l-1.898-6.818 3.254 7.114c2.55.498 5.124.85 7.708 1.102L88.567 375.36l-4.435.722" fill="#ef2d41"/><path d="M80.78 376.083a5.83 5.83 0 1111.661 0 5.83 5.83 0 01-11.661 0" fill="#fee82a"/><path d="M82.63 373.75a5.832 5.832 0 017.768 2.765 5.784 5.784 0 01.457 3.544 5.802 5.802 0 001.586-3.976 5.83 5.83 0 00-5.83-5.831c-2.864 0-5.232 2.067-5.726 4.787a5.777 5.777 0 011.745-1.288" fill="#deaa22"/><path d="M401.275 375.361c-26.168 6.986-46.038 22.592-52.46 56.599l118.593 68.893 1.68-2.641-67.813-122.85" fill="#564eaa"/><path d="M469.088 498.212l-7.416-13.436-5.017 2.573-61.827-63.972 21.232-21.232-14.785-26.784c-26.168 6.984-46.038 22.592-52.46 56.599l118.594 68.893 1.679-2.641" fill="#4a49a6"/><path d="M401.275 375.361c-26.168 6.984-46.038 22.592-52.46 56.599l33.782 19.625a84.552 84.552 0 014.294-5.722 83.464 83.464 0 0111.67-11.623 82.997 82.997 0 0127.095-14.71zm33.598 60.868c-.856.751-1.701 1.512-2.533 2.29-7.012 6.553-13.181 13.996-18.265 22.14a104.175 104.175 0 00-3.959 6.912l25.473 14.798c1.442-4.46 3.172-8.821 5.272-13.034a92.46 92.46 0 016.334-10.786zm13.964 53.836a45.5 45.5 0 018.099-7.784c.79-.59 1.601-1.148 2.428-1.686l9.724 17.617-1.679 2.641-18.572-10.788" fill="#f14660"/><path d="M421.172 450.636a108.354 108.354 0 00-7.097 10.023 104.175 104.175 0 00-3.959 6.912l25.473 14.798a94.577 94.577 0 014.742-11.91l-19.159-19.823M386.89 445.863a83.464 83.464 0 0111.671-11.623 83.057 83.057 0 013.896-2.967l-7.629-7.896 21.232-21.232-14.785-26.784c-26.168 6.984-46.038 22.592-52.46 56.599l33.782 19.625a84.552 84.552 0 014.294-5.722M461.672 484.776l-5.017 2.573-2.606-2.694a45.313 45.313 0 00-5.212 5.41l18.572 10.788 1.679-2.641-7.416-13.436" fill="#ef2d41"/><path d="M364.24 441.121c9.85-19.856 26.127-34.813 47.695-46.316l.465-1.449-9.876-19.717-1.687-.794c-5.129 1.184-26.006 6.839-38.749 22.88-12.459 15.684-14.196 31.559-14.439 35.892l.924 1.714 14.147 8.252 1.52-.462" fill="#fee82a"/><path d="M357.892 401.61c-8.673 13.598-10.03 26.217-10.243 30.007l.924 1.714 14.147 8.252 1.52-.462c3.239-6.528 7.184-12.516 11.77-18.036l-18.118-21.474" fill="#deaa22"/><path d="M527.656 458.548l-14.481 3.96-17.043 7.304 12.87-10.513 14.122-4.651-10.676-9.192-19.445 15.661-11.48 14.435 6.782-16.253 16.15-20.722-5.707-4.912-22.924 29.828-6.213 35.924 3.617.502 18.992-20.456 42.517-14.82-7.081-6.095" fill="#f14660"/><path d="M482.432 490.005c-1.51-6.669-4.235-13.056-7.939-18.822l-4.882 28.234 3.617.502 9.204-9.914" fill="#ef2d41"/><path d="M464.395 500.853a5.216 5.216 0 1110.432 0 5.216 5.216 0 01-10.432 0" fill="#fee82a"/><path d="M468.481 500.201c0-1.846.966-3.46 2.412-4.386a5.223 5.223 0 00-1.282-.178 5.216 5.216 0 000 10.432c1.034 0 1.993-.309 2.804-.829-2.258-.573-3.934-2.603-3.934-5.039" fill="#deaa22"/><path d="M409.175 240.247l149.48-21.391 1.302 3.39-117.652 97.566c-22.858-26.501-32.252-53.025-33.13-79.565" fill="#564eaa"/><path d="M442.305 319.812l117.652-97.565-1.302-3.391-14.956 2.14 1.129 8.947-83.21 40.056-18.49-34.611-33.953 4.859c.878 26.54 10.272 53.064 33.13 79.565" fill="#4a49a6"/><path d="M516.672 246.79c-4.668-5.145-9.345-10.28-14.021-15.415-1.207-1.326-2.412-2.659-3.626-3.986l-10.74 1.538c.58 2.196 1.214 4.378 1.875 6.564 1.13 3.737 2.465 7.422 3.884 11.058a198.043 198.043 0 009.941 21.563c.068.127.143.25.212.376l18.323-15.195c-1.947-2.17-3.89-4.344-5.848-6.504M469.267 247.852c-.807-5.285-1.563-10.579-2.356-15.867l-57.736 8.262c.878 26.54 10.272 53.064 33.13 79.565l34.432-28.553c-.492-2.362-.954-4.731-1.396-7.102-2.237-12.066-4.225-24.173-6.074-36.305M558.655 218.856l-30.123 4.31c.745 5.98 2.201 11.886 4.408 17.494.392.996.81 1.98 1.248 2.959l25.77-21.372-1.303-3.391" fill="#f14660"/><path d="M516.672 246.79l-2.084-2.29-17.843 8.588a197.634 197.634 0 007.24 15.024c.068.127.143.25.212.376l12.06-10 6.263-5.195c-1.947-2.17-3.89-4.344-5.848-6.504M544.828 229.943l-13.404 6.453a68.9 68.9 0 001.516 4.264c.392.996.81 1.98 1.248 2.959l25.77-21.372-1.303-3.391-14.956 2.14 1.129 8.947M475.341 284.157a1013.924 1013.924 0 01-3.349-19.152L461.617 270l-18.489-34.611-33.953 4.859c.878 26.54 10.272 53.064 33.13 79.565l34.432-28.553c-.492-2.362-.954-4.731-1.396-7.102" fill="#ef2d41"/><path d="M437.644 235.657c1.472 25.592 9.433 48.24 23.973 70.375l-.186 1.123-19.35 14.889c-.408-.016-.666-.027-1.074-.041-3.29-3.047-21.314-20.486-27.31-42.103-5.826-21.01-5.84-37.015-5.761-40.507l.73-.805 28.035-3.716c.375.312.57.473.943.785" fill="#fee82a"/><path d="M461.617 306.032c-5.142-7.828-9.444-15.723-12.944-23.787l-24.598 19.626c7.042 10.68 14.873 18.225 16.932 20.132.408.014.666.025 1.074.041l19.35-14.89.186-1.122" fill="#deaa22"/><path d="M554.185 189.535l6.386-51.302-3.494 1.762-6.857 48.34 2.173 10-3.738-10.523 1.464-44.31-16.739 8.433 7.839 35.205-14.734-31.732-6.964 3.51 22.839 41.8 18.241 21.542 2.314-3.425-8.73-29.3" fill="#f14660"/><path d="M562.915 218.835l-5.516-18.516a91.385 91.385 0 00-13.292-1.335 87.23 87.23 0 00-2.707-.024l.96 1.757 18.241 21.543 2.314-3.425" fill="#ef2d41"/><path d="M554.872 220.421a6.52 6.52 0 1113.043 0 6.522 6.522 0 01-13.043 0" fill="#fee82a"/><path d="M564.132 222.26a6.522 6.522 0 01-6.521-6.523c0-.228.044-.445.066-.668a6.514 6.514 0 00-2.806 5.352 6.522 6.522 0 006.522 6.522c3.374 0 6.115-2.571 6.454-5.854a6.484 6.484 0 01-3.715 1.171" fill="#deaa22"/><path d="M181.87 132.421l-3.825 1.739 45.218 140.175c30.797-4.107 53.396-17.344 61.604-46.608L181.87 132.42" fill="#564eaa"/><path d="M223.263 274.335c30.797-4.107 53.396-17.344 61.604-46.608L181.87 132.42l-3.826 1.739 3.442 10.67 5.932-1.103 59.812 79.564-31.656 27.212 7.688 23.832" fill="#4a49a6"/><path d="M284.867 227.727L267.2 211.38a419.17 419.17 0 01-14.37 6.08 411.632 411.632 0 01-35.486 12.317c-2.573.764-5.16 1.483-7.75 2.188l13.668 42.37c30.797-4.107 53.396-17.344 61.604-46.608M196.585 157.367c1.976-2.051 3.512-4.412 4.751-6.935l-19.465-18.01-3.826 1.738 9.332 28.932c3.522-.91 6.764-3.187 9.208-5.725M224.02 201.627a162.389 162.389 0 0014.8-16.508l-14.393-13.32c-.483.296-.954.606-1.444.894a105.545 105.545 0 01-23.076 10.035 113.653 113.653 0 01-5.699 1.539l10.72 33.232c6.793-4.739 13.159-10.114 19.092-15.872" fill="#f14660"/><path d="M232.844 179.588l-8.417-7.79c-.483.297-.954.607-1.444.895a105.115 105.115 0 01-9.939 5.12l14.919 19.847a164.58 164.58 0 0010.857-12.541l-5.976-5.531M187.419 143.727l9.753 12.973c1.688-1.893 3.055-4.01 4.164-6.268l-19.465-18.01-3.826 1.738 3.442 10.67 5.932-1.103M267.201 211.38a419.17 419.17 0 01-14.37 6.08 394.015 394.015 0 01-7.738 2.988l2.138 2.843-31.656 27.212 7.688 23.832c30.797-4.107 53.396-17.344 61.604-46.608L267.2 211.38" fill="#ef2d41"/><path d="M217.515 257.577c19.425-6.753 37.733-21.685 55.318-41.897.719-.041 1.111-.064 1.83-.107l11.758 10.854.484 1.886c-1.585 4.718-8.534 23.31-22.476 32.978-14.176 9.83-34.792 13.27-40.514 14.065-.762-.467-1.26-.775-2.02-1.243l-5.17-14.92.79-1.616" fill="#fee82a"/><path d="M281.001 241.692c3.251-5.939 5.164-11.175 5.904-13.379l-.484-1.886-11.758-10.854c-.719.043-1.111.066-1.83.107-4.694 5.396-9.444 10.401-14.249 14.99l22.417 11.022" fill="#deaa22"/><path d="M178.828 130.681l-58.957 11.842-24.522-4.451-.125 7.733 20.473 8.486 22.956-7.174-25.695 11.412-17.873-4.121-.27 16.63 18.274.209 35.086-20.87-34.108 23.87-19.328 1.509-.172 10.621 20.087-5.036L180 133.681l-1.173-3" fill="#f14660"/><path d="M178.828 130.681l-18.608 3.738a41.187 41.187 0 00-2.219 6.992 42.13 42.13 0 00-.966 9.021L180 133.682l-1.173-3" fill="#ef2d41"/><path d="M173.828 132.421a5.651 5.651 0 015.652-5.652 5.651 5.651 0 110 11.304 5.652 5.652 0 01-5.652-5.652" fill="#fee82a"/><path d="M179.485 126.77c1.192 1.035 1.963 2.545 1.963 4.249a5.654 5.654 0 01-5.653 5.653l-.006-.001c.994.862 2.274 1.401 3.691 1.401a5.651 5.651 0 00.005-11.303" fill="#deaa22"/><path d="M258.72 389.725l20.87-25.478-2 14.174 11.13.608-3.305 7.652 7.738 1.219-31.912 8.173-2.521-6.348" fill="#fee82a"/><path d="M270.804 374.973l14.467 14.946 7.884-2.019-7.74-1.219 3.305-7.652-11.13-.608 2-14.174-8.786 10.726" fill="#f14660"/><path d="M274.575 387.957a28.499 28.499 0 00-6.082-5.454 27.717 27.717 0 00-2.614-1.518l-7.159 8.742 2.521 6.345 16.063-4.113a26.61 26.61 0 00-2.73-4.002" fill="#deaa22"/><path d="M221.35 411.377l-28.043 4.566 9.39 4.044-7.044 9.782h10.306l-4.186 7.174 23.62-17.87-4.044-7.696" fill="#fee82a"/><path d="M207.325 432.741l-3.021-18.589-10.997 1.79 9.39 4.045-7.044 9.782h10.306l-4.186 7.174 5.552-4.202" fill="#f14660"/><path d="M221.35 411.377l-10.502 1.71a23.2 23.2 0 00.217 5.422 29.276 29.276 0 003.02 9.118l11.308-8.555-4.044-7.695" fill="#deaa22"/><path d="M218.975 418.181c-4.358-7.548 2.852-19.869 16.104-27.52 13.25-7.65 27.526-7.734 31.884-.186 4.358 7.548-2.851 19.87-16.103 27.521-13.252 7.65-27.527 7.735-31.885.185" fill="#fee82a"/><path d="M256.595 384.961l10.777 15.206c1.215-3.559 1.179-6.943-.41-9.692-1.887-3.271-5.643-5.104-10.367-5.514M218.708 408.061c-1.368 3.716-1.384 7.262.267 10.12 1.746 3.026 5.102 4.803 9.332 5.382l-9.599-15.502M244.741 386.44c-3.177.964-6.449 2.365-9.662 4.221a46.581 46.581 0 00-7.766 5.614l14.308 25.801a46.475 46.475 0 009.239-4.08c4.616-2.665 8.476-5.901 11.392-9.3l-17.51-22.256" fill="#f14660"/><path d="M139.176 467.047l-15.392-26.452 8.87 2.869-1.174-12.912 6.652 10.435 2.739-7.306 6.13 30.392-7.825 2.974" fill="#fee82a"/><path d="M139.175 467.047l7.826-2.975-3.11-15.42-10.463 8.517 5.747 9.878" fill="#deaa22"/><path d="M128.277 442.05l-4.492-1.455 1.631 2.805zM131.48 430.552l.87 9.572 4.022-1.897z" fill="#f14660"/><path d="M146.747 462.81l-1.244-6.169-10.892 2.56 4.15 7.135 7.986-3.525" fill="#ef2d41"/><path d="M143.725 447.832l-.918-4.553-15.638 3.134 4.136 7.107 12.42-5.688M139.77 436.621l1.546-.73-.445-2.21z" fill="#f14660"/><path d="M152.741 503.725l5.912 37.13 3.479-7.13 8.348 4.696v-10.086l7.739 3.39-17.391-30.608-8.087 2.608" fill="#fee82a"/><path d="M169.168 515.795l-8.34-14.678-8.087 2.61 3.458 21.709 12.969-9.641" fill="#deaa22"/><path d="M173.367 523.185l-2.04-3.59-15.383 4.246 1.15 7.223 16.273-7.879M161.707 502.664l-8.8 2.101 1.738 10.915 15.263 1.419-8.201-14.435M170.48 538.421v-7.177l-12.91 2.81 1.083 6.802 3.479-7.13 8.348 4.695M178.219 531.727l-1.095-1.928-2.205.48z" fill="#f14660"/><path d="M159.761 522.788l-3.817 1.053.255 1.595zM152.907 504.765l1.738 10.915 13.046 1.213 1.477-1.098-7.461-13.131-8.8 2.101" fill="#ef2d41"/><path d="M129.457 466.36l18.956 49.204 23.338-8.544-17.131-51.487-25.163 10.827" fill="#fee82a"/><path d="M171.75 507.02l-3.647-10.964-22.242 12.884 2.552 6.624 23.338-8.544M156.085 459.933l-1.465-4.4-25.163 10.827 4.702 12.205 21.926-18.632M164.893 486.41l-3.068-9.22-25.844 6.106 5.443 14.127 23.47-11.014" fill="#f14660"/><path d="M218.085 460.713l-11.632-17.77 9.158 4.304 1.565-9.522 4.435 8.739 4.18-6-3.138 18.783-4.568 1.466" fill="#da70be"/><path d="M221.892 450.995c-2.07.16-4.13.496-6.13 1.056-.93.26-1.846.572-2.747.916l5.07 7.746 4.568-1.466 1.392-8.334c-.717.006-1.436.027-2.153.082" fill="#9f59b3"/><path d="M216.683 440.727l-1.072 6.52-9.158-4.304 8.286 12.657c3.034-1.412 5.144-4.48 5.144-8.048a8.863 8.863 0 00-3.2-6.825M224.53 448.01c-2.21.135-3.966 1.953-3.966 4.198a4.228 4.228 0 002.613 3.904l1.354-8.101" fill="#f14660"/><path d="M215.761 452.05c-.929.26-1.845.573-2.746.917l1.724 2.633a8.902 8.902 0 004.286-4.26c-1.1.177-2.19.41-3.264.71M220.728 451.11a4.143 4.143 0 00-.164 1.098 4.228 4.228 0 002.613 3.904l.868-5.199c-.717.006-1.436.027-2.153.082a38.2 38.2 0 00-1.164.116" fill="#ef2d41"/><path d="M227.443 497.952l-3.012 20.221 6.022-5.162 2.152 5.845 2.083-6.85 4.996 2.726-7.627-18.072-4.614 1.292" fill="#da70be"/><path d="M235.952 505.888l-3.895-9.228-4.614 1.292-.991 6.641c.83.328 1.67.624 2.528.858 2.27.614 4.641.721 6.972.437" fill="#9f59b3"/><path d="M233.656 500.45a8.566 8.566 0 00.481 13.37l.551-1.813 4.996 2.725-6.028-14.283" fill="#f14660"/><path d="M233.008 498.913l-.95-2.253-4.615 1.292-.755 5.06a5.09 5.09 0 001.313.192c2.536 0 4.622-1.861 5.007-4.29M226.063 507.219l-.975 6.537c.093.008.183.028.279.028a3.319 3.319 0 00.696-6.565" fill="#f14660"/><path d="M230.759 505.824c1.716.267 3.465.275 5.193.064l-2.296-5.439a8.557 8.557 0 00-2.897 5.375M233.008 498.913l-.95-2.253-4.615 1.292-.755 5.06a5.09 5.09 0 001.313.192c2.536 0 4.622-1.861 5.007-4.29" fill="#ef2d41"/><path d="M211.599 482.067c-3.314-11.742.356-23.052 8.193-25.263 7.839-2.212 16.879 5.513 20.19 17.256 3.313 11.74-.357 23.05-8.194 25.263-7.837 2.21-16.877-5.515-20.19-17.256" fill="#da70be"/><path d="M227.35 467.265c3.073 0 5.631-2.122 6.34-4.976-3.325-3.712-7.349-5.89-11.277-5.841-.994 1.148-1.617 2.627-1.617 4.265a6.552 6.552 0 006.553 6.552M226.244 487.307a8.742 8.742 0 00-14.885-6.216c.081.325.148.649.24.977 1.624 5.757 4.63 10.54 8.192 13.667 3.716-1.007 6.453-4.394 6.453-8.428M232.057 494.785c-2.688 0-4.872 2.064-5.11 4.691 1.624.315 3.257.293 4.841-.153 1.639-.464 3.084-1.344 4.332-2.523-.943-1.217-2.403-2.015-4.063-2.015M210.412 472.552a4.97 4.97 0 002.068.456 5.021 5.021 0 005.021-5.021c0-2.69-2.117-4.864-4.773-4.998-1.395 2.658-2.196 5.951-2.316 9.563M239.983 474.06a32.025 32.025 0 00-2.956-7.088c-1.84.85-3.124 2.7-3.124 4.86a5.363 5.363 0 005.362 5.363c.483 0 .942-.084 1.386-.204a32.46 32.46 0 00-.668-2.931M235.375 480.508a4.697 4.697 0 100 9.392 4.697 4.697 0 000-9.392M222.25 472.552a3.142 3.142 0 106.286 0 3.144 3.144 0 10-6.287 0" fill="#f14660"/><path d="M188.219 557.464l14.478-21.39-.652 8.347 7.956-2.392-4.565 6.044 7.827-.782-23.087 13.173-1.957-3" fill="#564eaa"/><path d="M191.13 553.61a8.546 8.546 0 007.818-11.995l-8.11 11.98c.098.003.194.014.293.014" fill="#f14660"/><path d="M208.587 547.759l-3.151.313 1.047-1.386a5.867 5.867 0 00-1.546-.23 5.88 5.88 0 00-5.88 5.881c0 .968.256 1.87.672 2.675l10.171-5.803a5.866 5.866 0 00-1.313-1.45" fill="#f14660"/><path d="M194.748 547.817l-6.53 9.647 1.957 3 10.153-5.792-5.58-6.855" fill="#4a49a6"/><path d="M199.73 555.012l.598-.34-1.183-1.453c.098.64.299 1.238.584 1.793M194.748 547.817l-3.91 5.778c.098.003.194.014.293.014 2.432 0 4.62-1.02 6.176-2.65l-2.559-3.142" fill="#ef2d41"/><path d="M167.87 575.117l-23.129 11.043 8-1.043-3.913 5.392 8.87-.957-2 5.912 14-15.739-1.827-4.608" fill="#564eaa"/><path d="M167.87 575.117l-10.85 5.18 7.06 5.744 5.617-6.314-1.826-4.61" fill="#4a49a6"/><path d="M149.51 590.434l3.694-.398c3.32-1.135 5.71-4.273 5.71-7.976 0-.867-.13-1.703-.374-2.49l-13.799 6.59 8-1.043-3.797 5.23c.187.036.375.065.565.087M165.48 582.66a5.24 5.24 0 00-4.837 7.245l6.25-7.028a5.172 5.172 0 00-1.413-.217" fill="#f14660"/><path d="M158.54 579.57l-1.52.727 1.883 1.532a8.378 8.378 0 00-.363-2.258M165.48 582.66c-1.439 0-2.74.581-3.688 1.52l2.288 1.861 2.813-3.164a5.172 5.172 0 00-1.413-.217" fill="#ef2d41"/><path d="M184.567 550.943l-23.612 20.086 11.805 18.523 29.013-27.392-17.206-11.217" fill="#564eaa"/><path d="M171.259 587.195c2.292-1.466 3.792-3.88 3.792-6.616 0-4.472-4.002-8.1-8.938-8.1-1.342 0-2.61.276-3.753.757l8.899 13.959M177.379 570.79a7.524 7.524 0 001.396-14.918l-8.912 7.581c.101 4.067 3.424 7.336 7.516 7.336M192.464 556.09a8.813 8.813 0 00-.812 3.685 8.822 8.822 0 004.501 7.69l5.62-5.305-9.309-6.07M186.903 573.624a7.527 7.527 0 00-7.527 7.528c0 .663.093 1.301.255 1.915l9.604-9.069a7.506 7.506 0 00-2.332-.374" fill="#f14660"/><path d="M256.828 424.757c0-4.22 4.427-7.64 9.887-7.64 5.461 0 9.888 3.42 9.888 7.64 0 4.219-4.427 7.64-9.888 7.64-5.46 0-9.887-3.421-9.887-7.64" fill="#fee82a"/><path d="M260.425 422.297c-.364-1.154.812-2.557 2.628-3.13 1.816-.575 3.586-.104 3.951 1.052.365 1.154-.81 2.557-2.627 3.132-1.817.574-3.585.104-3.952-1.054" fill="#fff"/><path d="M273.09 418.921c.146.524.229 1.067.229 1.626 0 4.218-4.427 7.638-9.888 7.638-2.43 0-4.652-.678-6.374-1.802.964 3.437 4.92 6.014 9.658 6.014 5.461 0 9.888-3.421 9.888-7.64 0-2.342-1.367-4.434-3.514-5.836" fill="#deaa22"/><path d="M175.903 435.595c-4.995-2.228-6.602-9.511-3.59-16.264 3.014-6.755 9.506-10.424 14.502-8.195 4.996 2.228 6.602 9.51 3.589 16.265-3.013 6.754-9.505 10.423-14.501 8.194" fill="#da70be"/><path d="M187.432 411.464c1.499 3.285 1.455 7.783-.459 12.073-3.013 6.754-9.505 10.423-14.5 8.196-.216-.097-.416-.214-.618-.329.861 1.887 2.226 3.379 4.048 4.192 4.996 2.228 11.488-1.441 14.501-8.195 2.883-6.464 1.527-13.397-2.972-15.937" fill="#9f59b3"/><path d="M184.173 413.599c-.917-1.234-3.097-1.163-4.87.154-1.772 1.319-2.466 3.387-1.548 4.62.917 1.234 3.097 1.164 4.869-.153 1.773-1.319 2.467-3.388 1.55-4.621" fill="#fff"/><path d="M196.135 396.072a5.64 5.64 0 0111.279 0 5.64 5.64 0 11-11.28 0" fill="#fee82a"/><path d="M203.723 390.8c.537.864.862 1.877.862 2.97a5.64 5.64 0 01-5.64 5.638c-.688 0-1.338-.14-1.948-.367.995 1.599 2.755 2.672 4.776 2.672a5.641 5.641 0 005.64-5.641c0-2.425-1.541-4.476-3.69-5.272" fill="#deaa22"/><path d="M198.053 393.77a1.644 1.644 0 113.289-.003 1.644 1.644 0 01-3.289.002" fill="#fff"/><path d="M163.359 396.073a5.81 5.81 0 1111.62.001 5.81 5.81 0 01-11.62 0" fill="#f14660"/><path d="M172.183 391.13c.333.733.53 1.54.53 2.395a5.81 5.81 0 01-5.809 5.811 5.752 5.752 0 01-3.015-.867 5.798 5.798 0 005.279 3.414 5.81 5.81 0 005.81-5.811c0-2.099-1.126-3.921-2.795-4.943" fill="#ef2d41"/><path d="M166.904 392.124a1.402 1.402 0 112.803 0 1.402 1.402 0 01-2.803 0" fill="#fff"/><path d="M146.37 417.117a7.39 7.39 0 1114.78 0 7.391 7.391 0 01-14.78 0" fill="#564eaa"/><path d="M157.515 410.76a7.345 7.345 0 01.992 3.685c0 4.082-3.31 7.391-7.391 7.391a7.33 7.33 0 01-3.755-1.033 7.382 7.382 0 006.399 3.705c4.081 0 7.39-3.31 7.39-7.39a7.38 7.38 0 00-3.635-6.358" fill="#4a49a6"/><path d="M150.48 413.29a1.913 1.913 0 113.827 0 1.913 1.913 0 01-3.827 0" fill="#fff"/><path d="M175.163 476.78c.525-5.445 6.917-9.284 14.28-8.576 7.361.708 12.904 5.697 12.38 11.141-.524 5.446-6.918 9.284-14.279 8.576-7.363-.708-12.905-5.697-12.381-11.141" fill="#f14660"/><path d="M197.437 471.088c.066.536.091 1.079.038 1.628-.524 5.444-6.918 9.284-14.279 8.573-3.095-.297-5.859-1.357-7.995-2.884.59 4.779 5.723 8.879 12.343 9.516 7.361.708 13.755-3.13 14.279-8.576.304-3.156-1.44-6.152-4.386-8.257" fill="#ef2d41"/><path d="M188.223 471.887c-.396-1.132-2.763-1.335-5.286-.452-2.522.881-4.246 2.513-3.85 3.644.394 1.133 2.76 1.334 5.282.453 2.524-.881 4.248-2.513 3.854-3.645" fill="#fff"/><path d="M99.393 495.815c0-5.539 6.132-10.028 13.696-10.028s13.695 4.489 13.695 10.028c0 5.538-6.131 10.029-13.695 10.029s-13.696-4.49-13.696-10.03" fill="#da70be"/><path d="M121.177 487.735a7.49 7.49 0 01.39 2.34c0 5.54-6.132 10.029-13.696 10.029-3.029 0-5.82-.728-8.088-1.948 1.443 4.408 6.845 7.688 13.306 7.688 7.564 0 13.696-4.49 13.696-10.03 0-3.32-2.214-6.254-5.608-8.08" fill="#9f59b3"/><path d="M103.176 493.767c-.724-1.151.245-3.064 2.167-4.272 1.92-1.208 4.064-1.256 4.788-.104.724 1.15-.246 3.064-2.166 4.272-1.921 1.208-4.065 1.254-4.789.104" fill="#fff"/><path d="M129.597 522.247a6.683 6.683 0 1113.367 0 6.683 6.683 0 01-13.367 0" fill="#564eaa"/><path d="M138.056 515.833a6.628 6.628 0 011.288 3.914 6.683 6.683 0 01-6.683 6.684c-.62 0-1.207-.111-1.776-.27 1.214 1.672 3.172 2.77 5.396 2.77a6.683 6.683 0 006.683-6.684c0-3.071-2.084-5.632-4.908-6.414" fill="#4a49a6"/><path d="M131.865 519.024c.533-1.136 1.655-1.735 2.506-1.336.85.4 1.106 1.645.572 2.781-.534 1.138-1.656 1.736-2.506 1.336-.85-.4-1.106-1.644-.572-2.781" fill="#fafaf9"/><path d="M127.647 548.27c0-6.08 4.928-11.007 11.006-11.007 6.079 0 11.007 4.926 11.007 11.006 0 6.078-4.928 11.007-11.007 11.007-6.078 0-11.006-4.93-11.006-11.007" fill="#da70be"/><path d="M142.865 538.1a10.949 10.949 0 011.546 5.605c0 6.079-4.928 11.007-11.007 11.007a10.98 10.98 0 01-4.21-.839c1.917 3.231 5.43 5.403 9.46 5.403 6.078 0 11.007-4.928 11.007-11.007 0-4.588-2.808-8.516-6.796-10.169" fill="#9f59b3"/><path d="M131.667 541.545c1.528-1.652 3.813-2.024 5.102-.83 1.29 1.192 1.096 3.499-.432 5.15-1.528 1.651-3.812 2.024-5.102.83-1.289-1.192-1.096-3.5.432-5.15" fill="#fff"/><path d="M111.449 571.361a8.1 8.1 0 1116.199.001 8.1 8.1 0 01-16.2 0" fill="#f14660"/><path d="M122.41 563.792a8.053 8.053 0 011.56 4.765 8.098 8.098 0 01-8.099 8.099 8.069 8.069 0 01-2.862-.53 8.078 8.078 0 006.539 3.334c4.473 0 8.1-3.625 8.1-8.099 0-3.463-2.18-6.41-5.238-7.569" fill="#ef2d41"/><path d="M114.335 566.664c.75-1.181 2.045-1.704 2.893-1.166.85.538.93 1.933.18 3.116-.75 1.18-2.045 1.703-2.893 1.165-.85-.539-.93-1.934-.18-3.115" fill="#fff"/><path d="M203.008 515.679c-2.832-5.366-2.287-11.214 1.216-13.06 3.503-1.848 8.637 1.004 11.468 6.37 2.83 5.366 2.287 11.214-1.216 13.062-3.503 1.848-8.637-1.004-11.468-6.372" fill="#564eaa"/><path d="M215.137 516.164c-3.502 1.847-8.637-1.005-11.468-6.372a15.82 15.82 0 01-1.641-4.837c-1.343 2.688-1.076 6.83.98 10.724 2.83 5.368 7.965 8.22 11.468 6.372 2.45-1.294 3.448-4.548 2.857-8.224-.506 1.016-1.236 1.829-2.196 2.337" fill="#4a49a6"/><path d="M206.059 504.912c.533-1.044 2.31-1.203 3.966-.356 1.658.847 2.568 2.38 2.035 3.424-.535 1.044-2.31 1.204-3.968.357-1.656-.846-2.567-2.381-2.033-3.425" fill="#fff"/><path d="M216.123 575.117a7.817 7.817 0 10-15.635 0 7.817 7.817 0 0015.635 0" fill="#fee82a"/><path d="M212.339 568.43a7.817 7.817 0 01-6.892 11.504 7.78 7.78 0 01-4.032-1.13 7.817 7.817 0 0014.708-3.687c0-2.84-1.52-5.319-3.784-6.688" fill="#deaa22"/><path d="M204.165 571.56c-.394-.903.304-2.079 1.559-2.626 1.255-.546 2.59-.258 2.984.643.393.904-.304 2.079-1.56 2.626-1.253.546-2.59.258-2.983-.643" fill="#fff"/><path d="M245.91 368.637c0-6.029 4.887-10.917 10.918-10.917 6.03 0 10.919 4.888 10.919 10.917 0 6.032-4.89 10.92-10.919 10.92-6.03 0-10.919-4.888-10.919-10.92" fill="#da70be"/><path d="M261.635 358.845a10.851 10.851 0 012.024 6.319c0 6.03-4.888 10.919-10.918 10.919-1.728 0-3.356-.412-4.808-1.127 1.98 2.78 5.222 4.601 8.895 4.601 6.03 0 10.919-4.888 10.919-10.92 0-4.301-2.495-8.013-6.112-9.792" fill="#9f59b3"/><path d="M250.816 362.15c1.179-1.617 2.928-2.347 3.908-1.633.979.716.816 2.604-.363 4.219-1.178 1.616-2.928 2.347-3.908 1.632-.978-.715-.816-2.603.363-4.219" fill="#fff"/><path d="M267.747 350.508a7.306 7.306 0 1114.611.002 7.306 7.306 0 01-14.611-.002" fill="#f14660"/><path d="M278.003 343.828c.473.967.746 2.052.746 3.201a7.306 7.306 0 01-7.305 7.307 7.286 7.286 0 01-2.95-.625 7.299 7.299 0 006.558 4.102 7.305 7.305 0 007.305-7.305 7.301 7.301 0 00-4.354-6.68" fill="#ef2d41"/><path d="M270.736 346.11c.721-.787 1.82-.957 2.453-.375.634.578.562 1.688-.161 2.476-.721.788-1.82.956-2.453.376-.632-.579-.56-1.688.161-2.476" fill="#fff"/><path d="M290.045 362.228c0-2.967 3.359-5.372 7.503-5.372s7.503 2.405 7.503 5.372c0 2.965-3.359 5.37-7.503 5.37s-7.503-2.405-7.503-5.37" fill="#334fa9"/><path d="M294.572 337.593c1.313-2.596 4.072-3.845 6.161-2.788 2.091 1.056 2.72 4.019 1.408 6.615-1.313 2.596-4.072 3.845-6.161 2.79-2.09-1.058-2.72-4.02-1.408-6.617M238.615 346.1c1.116-2.55 5.285-3.188 9.313-1.425 4.03 1.762 6.39 5.257 5.276 7.806-1.115 2.55-5.285 3.188-9.313 1.426-4.03-1.763-6.391-5.258-5.276-7.807" fill="#fee82a"/><path d="M162.13 453.188c-3.615-4.86-4.407-10.39-1.771-12.35 2.637-1.962 7.705.389 11.318 5.247 3.615 4.862 4.408 10.39 1.772 12.351-2.636 1.963-7.704-.388-11.318-5.248" fill="#334fa9"/><path d="M194.365 450.37c4.307 3.142 6.02 8.127 3.826 11.134-2.194 3.007-7.463 2.897-11.77-.247-4.306-3.141-6.02-8.128-3.826-11.134 2.193-3.006 7.464-2.895 11.77.246M107.749 526.48c3.77-3.77 8.96-4.692 11.591-2.061 2.632 2.632 1.71 7.821-2.06 11.591-3.77 3.77-8.96 4.693-11.591 2.06-2.633-2.631-1.71-7.82 2.06-11.59" fill="#fee82a"/><path d="M228.307 112.421l10.513 3.162 24.895-46.988-28.34-7.304-7.068 51.13" fill="#5d45a5"/><path d="M136.372 231.985v9.707H94.567l5.235-20.685 36.57 10.978" fill="#334fa9"/><path d="M84.132 267.03v8.87l-53.74-14.261 12.523-23.479 41.217 28.87" fill="#5d45a5"/><path d="M115.225 306.681l3.576 10.523-31.712 33.772-20.696-12.45 48.832-31.845" fill="#334fa9"/><path d="M277.304 151.273l9.601-1.62-2.038-37.753-12.984-2.73 5.421 42.103" fill="#deaa22"/><path d="M101.871 94.57l13.599 2.2 28.857-35.48-21.228-12-21.228 45.28" fill="#ef2d41"/><path d="M80.885 507.219l8.986 2.56v49.497l-23.478-11.664 14.492-40.393M535.535 300.421l10.156 5.218 58.441-31.304-39.956-6.294-28.641 32.38" fill="#5d45a5"/><path d="M528.532 384.961l-6.012 11.546 40.395 43.617 13.74-34.617-48.123-20.546M458.961 530.763l10.127-5.434 6.933 48.295-27.184-3.377 10.124-39.484" fill="#334fa9"/><path d="M375.757 550.714l11.478 1.623-15.611 43.127-15.292-5.559 19.425-39.191M179.376 608.041l14.696-5.706 39.283 33.39-11.106 13.566-42.873-41.25" fill="#deaa22"/><path d="M87.089 590.434l16.314 5.03 8.046 39.217-33.317-4.172 8.957-40.075M46.924 405.507l10.339 13.996-34.696 16.744-8.348-19.13 32.705-11.61" fill="#334fa9"/><path d="M428.655 124.943h18.54l13.11-44.87-35.082-12 3.432 56.87" fill="#ef2d41"/><path d="M424.075 171.799l1.148 8.448 35.082-8.83-6.782-21.764-29.448 22.146" fill="#5d45a5"/><path d="M545.69 109.17l9.182 6.413L595.437 87.9l-18.782-19.827-30.964 41.096M501.321 15.9l4.082 52.173h14.118l7.554-43.737L501.32 15.9" fill="#334fa9"/><path d="M30.393 31.552L20.48 41.987l32.348 31.042 8.348-4.956-30.783-36.521" fill="#5d45a5"/><path d="M25.697 107.725l-5.217 24.696h40.696v-12.348l-35.479-12.348M324.399 20.073l12.45 32.218 7.088-3-4.862-33.391-14.676 4.173" fill="#deaa22"/><path d="M188.493 21.116l1.198 46.957h8.362l8.312-46.957h-17.872" fill="#334fa9"/><path d="M393.4 25.29l11.053 24 7.947-7.303-9.5-26.087-9.5 9.39" fill="#5d45a5"/><path d="M322.41 512.335l7.81-2.556 26.112 40.935-19.483 5.377-14.438-43.756" fill="#ef2d41"/><path d="M492.132 595.464l-7.565 12.577 43.965 34.988 15.713-23.782-52.113-23.783M562.915 487.735l17.913-2.186 14.61 68.592-35.48-4.665 2.957-61.741" fill="#5d45a5"/><path d="M577.697 590.434l12.066-12.089 36.977 17.119-9.39 17.095-39.653-22.125" fill="#deaa22"/><path d="M287.959 590.434l15.813-7.367 37.708 42.745-19.07 17.217-34.451-52.595" fill="#334fa9"/><path d="M410.116 595.452l15.107 6.883 8.424 46.956-21.247-6.262-2.284-47.577" fill="#ef2d41"/><path d="M527.075 333.333l4.349 10.495 58.339 5.463v-23.827l-62.688 7.87M589.763 181.341l5.674 12.207 50.086-12.207-12.52-18.249-43.24 18.25" fill="#deaa22"/><path d="M617.643 68.073l4.924 52h12.521l10.435-58.782-27.88 6.782" fill="#5d45a5"/><path d="M617.643 15.9l-22.206 18.195V49.29l36.146-7.304-13.94-26.087" fill="#334fa9"/><path d="M35.741 480.595l5.087 7.14-10.435 34.512L14.219 510.5l21.522-29.906M620.327 428.675l-9.378 6.584 6.119 31.8 22.641-5.304-19.382-33.08" fill="#ef2d41"/></svg>